<?xml version="1.0" encoding="utf-8"?>
<!-- Svg Vector Icons : http://www.onlinewebfonts.com/icon -->
<!DOCTYPE svg PUBLIC "-//W3C//DTD SVG 1.1//EN" "http://www.w3.org/Graphics/SVG/1.1/DTD/svg11.dtd">
<svg version="1.1" xmlns="http://www.w3.org/2000/svg" xmlns:xlink="http://www.w3.org/1999/xlink" x="0px" y="0px" viewBox="0 0 1000 1000" enable-background="new 0 0 1000 1000" xml:space="preserve">
<metadata> Svg Vector Icons : http://www.onlinewebfonts.com/icon </metadata>
<g><g transform="translate(0.000000,512.000000) scale(0.100000,-0.100000)"><path d="M4770.4,5012.1c-15.3-3.8-93.8-17.2-172.3-28.7c-545.8-88.1-1099.2-432.8-1434.3-888.6c-262.4-360-442.4-856-442.4-1225.6v-126.4h727.7c400.2,0,727.7,5.7,727.7,15.3c1.9,70.9,65.1,293,107.2,367.7c72.8,132.1,231.7,277.7,384.9,350.4c120.6,57.5,145.5,61.3,331.3,61.3c185.8,0,210.7-3.8,331.3-61.3c153.2-72.8,312.2-218.3,384.9-350.4c105.3-193.4,107.2-216.4,107.2-1928.4v-1576h727.7h729.6l-7.6,1748.4c-5.7,1733.1-5.7,1748.4-47.9,1905.4c-247,928.8-988.1,1593.3-1928.4,1727.3C5174.5,5019.8,4841.3,5025.5,4770.4,5012.1z"/><path d="M1917.1,2358c-532.4-111.1-1024.5-425.1-1352-857.9C138.1,931.3-3.7,222.7,176.4-468.6c237.4-917.3,1082-1623.9,2014.6-1685.2l185.8-11.5v729.6c0,402.1-5.7,731.5-13.4,731.5c-72.8,1.9-294.9,65.1-369.6,107.2c-132.1,72.8-277.7,231.7-350.4,384.9c-57.4,120.6-61.3,145.5-61.3,331.3s3.8,210.6,61.3,331.3c34.5,70.9,105.3,176.2,160.9,233.6c95.7,101.5,291.1,220.2,363.8,220.2c19.2,0,40.2,9.6,45.9,19.2c7.7,13.4,578.3,19.1,1648.8,19.1h1635.4v727.7v727.7l-1698.6-1.9C2179.4,2396.3,2089.4,2394.3,1917.1,2358z"/><path d="M7623.7,1670.5c0-400.2,5.7-727.7,15.3-727.7c70.9-1.9,293-65.1,367.7-107.2c132.1-72.8,277.7-231.7,350.4-384.9c57.5-120.6,61.3-145.5,61.3-331.3s-3.8-210.6-61.3-331.3c-72.8-153.2-218.3-312.2-350.4-384.9c-193.4-105.3-216.4-107.2-1928.4-107.2h-1576v-727.7v-729.6l1748.4,5.8l1746.5,5.7l181.9,51.7c99.6,28.7,243.2,76.6,317.9,109.1c1112.6,473,1666,1702.4,1281.1,2847.6c-168.5,503.6-534.3,947.9-1016.9,1239c-271.9,164.7-731.5,300.7-1011.1,300.7h-126.4V1670.5z"/><path d="M2721.4-1069.9c0-1627.7,1.9-1692.8,40.2-1880.5c137.9-687.5,597.5-1281.1,1237.1-1600.9c570.7-285.3,1296.5-304.5,1890.1-49.8c783.2,337,1334.7,1097.3,1384.5,1909.2l11.5,187.7h-729.6c-402.1,0-731.5-5.7-731.5-13.4c-1.9-72.8-65.1-294.9-107.2-369.6c-72.8-132.1-231.7-277.7-384.9-350.4c-120.6-57.5-145.5-61.3-331.3-61.3c-185.8,0-210.6,3.8-331.3,61.3c-153.2,72.8-312.1,218.3-384.9,350.4c-105.3,193.4-107.2,216.4-107.2,1930.3V617.2h-727.7h-727.7V-1069.9z"/></g></g>
</svg>